# Blender v2.78 (sub 0) OBJ File: 'arrow.blend'
# www.blender.org
mtllib arrow.mtl
o Plane
v -0.331082 -1.000000 0.118000
v 0.509930 -1.000000 0.118000
v -0.419381 0.547004 0.118000
v 0.420648 0.524706 0.118000
v 0.000000 1.000000 0.118000
v -0.331082 -1.000000 -0.000000
v 0.509930 -1.000000 -0.000000
v -0.419381 0.547004 0.000000
v 0.420648 0.524706 0.000000
v 0.000000 1.000000 0.000000
vt 0.0237 0.4145
vt 0.0001 0.0001
vt 0.7539 0.0012
vt 0.9999 0.1951
vt 0.7885 0.4145
vt 0.0237 0.4145
vt 0.7885 0.4145
vt 0.9999 0.1951
vt 0.7539 0.0012
vt 0.0001 0.0001
vn -0.0000 -0.0000 1.0000
vn -0.0000 0.0000 -1.0000
vn -0.9984 -0.0570 0.0000
vn 0.0000 -1.0000 0.0000
vn 0.9983 0.0585 0.0000
vn -0.7338 0.6794 0.0000
vn 0.7488 0.6627 0.0000
usemtl Material.001
s off
f 1/1/1 2/2/1 4/3/1 5/4/1 3/5/1
f 6/6/2 8/7/2 10/8/2 9/9/2 7/10/2
f 1/1/3 3/5/3 8/7/3 6/6/3
f 2/2/4 1/1/4 6/6/4 7/10/4
f 4/3/5 2/2/5 7/10/5 9/9/5
f 3/5/6 5/4/6 10/8/6 8/7/6
f 5/4/7 4/3/7 9/9/7 10/8/7
