# Blender v2.78 (sub 0) OBJ File: 'Shell.blend'
# www.blender.org
o Cylinder_Cylinder.001
v -0.335191 0.140189 0.000000
v 0.555678 0.000021 -0.000000
v -0.335191 0.137495 -0.027352
v -0.335190 0.129517 -0.053653
v -0.335190 0.116561 -0.077892
v -0.335189 0.099125 -0.099138
v -0.335188 0.077879 -0.116573
v -0.335188 0.053640 -0.129530
v -0.335187 0.027339 -0.137508
v -0.335185 -0.000013 -0.140202
v -0.335184 -0.027365 -0.137508
v -0.335183 -0.053666 -0.129530
v -0.335183 -0.077905 -0.116573
v -0.335182 -0.099150 -0.099138
v -0.335181 -0.116586 -0.077892
v -0.335181 -0.129542 -0.053653
v -0.335180 -0.137521 -0.027352
v -0.335180 -0.140215 0.000000
v -0.335180 -0.137521 0.027352
v -0.335181 -0.129542 0.053653
v -0.335181 -0.116586 0.077892
v -0.335182 -0.099150 0.099138
v -0.335183 -0.077905 0.116574
v -0.335183 -0.053666 0.129530
v -0.335184 -0.027365 0.137508
v -0.335185 -0.000013 0.140202
v -0.335187 0.027339 0.137508
v -0.335188 0.053640 0.129529
v -0.335188 0.077879 0.116573
v -0.335189 0.099125 0.099137
v -0.335190 0.116561 0.077892
v -0.335190 0.129517 0.053653
v -0.335191 0.137495 0.027352
v 0.027576 0.194517 -0.000000
v 0.027577 0.190780 -0.037948
v 0.027577 0.179711 -0.074438
v 0.027578 0.161735 -0.108067
v 0.027579 0.137545 -0.137544
v 0.027580 0.108068 -0.161734
v 0.027581 0.074439 -0.179709
v 0.027582 0.037949 -0.190778
v 0.027584 0.000001 -0.194516
v 0.027585 -0.037947 -0.190778
v 0.027587 -0.074437 -0.179709
v 0.027588 -0.108066 -0.161734
v 0.027589 -0.137543 -0.137544
v 0.027590 -0.161733 -0.108067
v 0.027591 -0.179708 -0.074438
v 0.027591 -0.190777 -0.037948
v 0.027591 -0.194515 0.000000
v 0.027591 -0.190777 0.037948
v 0.027591 -0.179708 0.074438
v 0.027590 -0.161733 0.108067
v 0.027589 -0.137542 0.137544
v 0.027588 -0.108066 0.161734
v 0.027587 -0.074437 0.179709
v 0.027585 -0.037947 0.190779
v 0.027584 0.000001 0.194516
v 0.027582 0.037950 0.190778
v 0.027581 0.074439 0.179709
v 0.027580 0.108069 0.161734
v 0.027579 0.137545 0.137543
v 0.027578 0.161735 0.108067
v 0.027577 0.179711 0.074438
v 0.027577 0.190780 0.037948
v -0.223820 0.190392 -0.037873
v -0.223819 0.179345 -0.074290
v -0.223818 0.161405 -0.107853
v -0.223818 0.137262 -0.137271
v -0.223816 0.107845 -0.161413
v -0.223815 0.074282 -0.179353
v -0.223814 0.037864 -0.190400
v -0.223812 -0.000009 -0.194130
v -0.223811 -0.037881 -0.190400
v -0.223809 -0.074299 -0.179353
v -0.223808 -0.107862 -0.161413
v -0.223807 -0.137279 -0.137271
v -0.223806 -0.161422 -0.107853
v -0.223805 -0.179362 -0.074290
v -0.223805 -0.190409 -0.037873
v -0.223805 -0.194139 0.000000
v -0.223805 -0.190409 0.037873
v -0.223805 -0.179362 0.074291
v -0.223806 -0.161422 0.107853
v -0.223807 -0.137279 0.137271
v -0.223808 -0.107861 0.161414
v -0.223809 -0.074299 0.179353
v -0.223811 -0.037881 0.190400
v -0.223812 -0.000008 0.194130
v -0.223814 0.037865 0.190400
v -0.223815 0.074282 0.179353
v -0.223816 0.107845 0.161413
v -0.223818 0.137263 0.137271
v -0.223818 0.161405 0.107853
v -0.223819 0.179345 0.074290
v -0.223820 0.190392 0.037873
v -0.223820 0.194122 0.000000
v 0.291626 0.128611 -0.000000
v 0.291626 0.126140 -0.025089
v 0.291626 0.118822 -0.049213
v 0.291627 0.106938 -0.071446
v 0.291627 0.090945 -0.090934
v 0.291628 0.071457 -0.106927
v 0.291629 0.049224 -0.118811
v 0.291630 0.025100 -0.126129
v 0.291631 0.000011 -0.128600
v 0.291632 -0.025077 -0.126129
v 0.291633 -0.049202 -0.118811
v 0.291633 -0.071435 -0.106927
v 0.291634 -0.090922 -0.090934
v 0.291635 -0.106915 -0.071446
v 0.291635 -0.118799 -0.049213
v 0.291636 -0.126117 -0.025089
v 0.291636 -0.128588 0.000000
v 0.291636 -0.126117 0.025089
v 0.291635 -0.118799 0.049213
v 0.291635 -0.106915 0.071446
v 0.291634 -0.090922 0.090934
v 0.291633 -0.071435 0.106927
v 0.291633 -0.049202 0.118811
v 0.291632 -0.025077 0.126129
v 0.291631 0.000011 0.128600
v 0.291630 0.025100 0.126129
v 0.291629 0.049224 0.118810
v 0.291628 0.071458 0.106927
v 0.291627 0.090945 0.090934
v 0.291627 0.106938 0.071446
v 0.291626 0.118822 0.049213
v 0.291626 0.126140 0.025088
vt 0.4118 0.8692
vt 0.2120 0.7820
vt 0.4186 0.8518
vt 0.4238 0.8338
vt 0.4275 0.8154
vt 0.0002 0.8338
vt 0.0054 0.8518
vt 0.0122 0.8692
vt 0.0204 0.8860
vt 0.0300 0.9021
vt 0.0410 0.9172
vt 0.0532 0.9314
vt 0.0666 0.9445
vt 0.0811 0.9563
vt 0.0965 0.9669
vt 0.1128 0.9761
vt 0.1298 0.9839
vt 0.1474 0.9902
vt 0.1655 0.9950
vt 0.1840 0.9982
vt 0.2026 0.9998
vt 0.2214 0.9998
vt 0.2400 0.9982
vt 0.2584 0.9950
vt 0.2765 0.9902
vt 0.2942 0.9839
vt 0.3112 0.9761
vt 0.3275 0.9669
vt 0.3429 0.9563
vt 0.3574 0.9445
vt 0.3708 0.9314
vt 0.3830 0.9172
vt 0.3940 0.9021
vt 0.4036 0.8860
vt 0.7217 0.3150
vt 0.7417 0.3110
vt 0.7621 0.3110
vt 0.7822 0.3150
vt 0.8010 0.3228
vt 0.8180 0.3341
vt 0.8324 0.3486
vt 0.8437 0.3655
vt 0.8515 0.3844
vt 0.8555 0.4044
vt 0.8555 0.4248
vt 0.8515 0.4448
vt 0.8437 0.4637
vt 0.8324 0.4806
vt 0.8180 0.4951
vt 0.8010 0.5064
vt 0.7822 0.5142
vt 0.7621 0.5182
vt 0.7417 0.5182
vt 0.7217 0.5142
vt 0.7029 0.5064
vt 0.6859 0.4951
vt 0.6715 0.4806
vt 0.6601 0.4637
vt 0.6523 0.4448
vt 0.6483 0.4248
vt 0.6483 0.4044
vt 0.6523 0.3844
vt 0.6601 0.3655
vt 0.6715 0.3486
vt 0.6859 0.3341
vt 0.7029 0.3228
vt 0.1141 0.5943
vt 0.1134 0.7810
vt 0.0851 0.7809
vt 0.0858 0.5942
vt 0.1424 0.5944
vt 0.1417 0.7811
vt 0.1706 0.5945
vt 0.1700 0.7812
vt 0.1989 0.5946
vt 0.1984 0.7812
vt 0.2271 0.5947
vt 0.2267 0.7813
vt 0.2554 0.5947
vt 0.2550 0.7814
vt 0.2836 0.5948
vt 0.2833 0.7814
vt 0.3119 0.5948
vt 0.3116 0.7815
vt 0.3401 0.5949
vt 0.3399 0.7815
vt 0.3684 0.5949
vt 0.3682 0.7816
vt 0.3966 0.5949
vt 0.3965 0.7816
vt 0.4249 0.5949
vt 0.4248 0.7816
vt 0.4532 0.5949
vt 0.4532 0.7816
vt 0.4814 0.5949
vt 0.4815 0.7816
vt 0.5097 0.5949
vt 0.5098 0.7816
vt 0.5379 0.5949
vt 0.5381 0.7816
vt 0.5662 0.5949
vt 0.5664 0.7815
vt 0.5944 0.5948
vt 0.5947 0.7815
vt 0.6227 0.5948
vt 0.6230 0.7814
vt 0.6509 0.5947
vt 0.6513 0.7814
vt 0.6792 0.5947
vt 0.6796 0.7813
vt 0.7074 0.5946
vt 0.7079 0.7812
vt 0.7357 0.5945
vt 0.7363 0.7812
vt 0.7640 0.5944
vt 0.7646 0.7811
vt 0.7922 0.5943
vt 0.7929 0.7810
vt 0.8205 0.5942
vt 0.8212 0.7809
vt 0.8487 0.5941
vt 0.8495 0.7808
vt 0.8770 0.5940
vt 0.8778 0.7806
vt 0.9052 0.5939
vt 0.9061 0.7805
vt 0.0293 0.5940
vt 0.0285 0.7806
vt 0.0002 0.7805
vt 0.0011 0.5939
vt 0.0576 0.5941
vt 0.0568 0.7808
vt 0.1100 0.3688
vt 0.0277 0.4095
vt 0.0163 0.3837
vt 0.1018 0.3501
vt 0.0071 0.3570
vt 0.0951 0.3308
vt 0.0002 0.3296
vt 0.0902 0.3110
vt 0.5580 0.3110
vt 0.6480 0.3296
vt 0.6411 0.3570
vt 0.5530 0.3308
vt 0.6319 0.3837
vt 0.5464 0.3501
vt 0.6204 0.4095
vt 0.5381 0.3688
vt 0.6068 0.4343
vt 0.5283 0.3866
vt 0.5912 0.4578
vt 0.5170 0.4036
vt 0.5735 0.4799
vt 0.5042 0.4196
vt 0.5541 0.5004
vt 0.4902 0.4344
vt 0.5330 0.5192
vt 0.4749 0.4479
vt 0.5103 0.5360
vt 0.4586 0.4601
vt 0.4863 0.5509
vt 0.4413 0.4709
vt 0.4611 0.5637
vt 0.4231 0.4801
vt 0.4349 0.5743
vt 0.4041 0.4878
vt 0.4079 0.5827
vt 0.3846 0.4938
vt 0.3803 0.5887
vt 0.3647 0.4981
vt 0.3523 0.5923
vt 0.3445 0.5007
vt 0.3241 0.5935
vt 0.3241 0.5016
vt 0.2959 0.5923
vt 0.3037 0.5007
vt 0.2678 0.5887
vt 0.2835 0.4981
vt 0.2402 0.5827
vt 0.2635 0.4938
vt 0.2132 0.5743
vt 0.2440 0.4878
vt 0.1870 0.5637
vt 0.2251 0.4801
vt 0.1618 0.5509
vt 0.2069 0.4709
vt 0.1378 0.5360
vt 0.1896 0.4601
vt 0.1152 0.5192
vt 0.1732 0.4479
vt 0.0941 0.5004
vt 0.1580 0.4344
vt 0.0746 0.4799
vt 0.1439 0.4196
vt 0.0570 0.4578
vt 0.1312 0.4036
vt 0.0413 0.4343
vt 0.1199 0.3866
vt 0.0892 0.0944
vt 0.1982 0.2645
vt 0.1827 0.2750
vt 0.0657 0.1102
vt 0.1134 0.0797
vt 0.2142 0.2548
vt 0.1382 0.0662
vt 0.2306 0.2459
vt 0.1637 0.0538
vt 0.2475 0.2377
vt 0.1898 0.0427
vt 0.2647 0.2303
vt 0.2163 0.0328
vt 0.2822 0.2238
vt 0.2433 0.0242
vt 0.3001 0.2181
vt 0.2706 0.0169
vt 0.3181 0.2133
vt 0.2983 0.0109
vt 0.3364 0.2093
vt 0.3262 0.0062
vt 0.3549 0.2062
vt 0.3543 0.0029
vt 0.3735 0.2040
vt 0.3826 0.0009
vt 0.3921 0.2027
vt 0.4109 0.0002
vt 0.4109 0.2022
vt 0.4392 0.0009
vt 0.4296 0.2027
vt 0.4674 0.0029
vt 0.4482 0.2040
vt 0.4955 0.0062
vt 0.4668 0.2062
vt 0.5234 0.0109
vt 0.4853 0.2093
vt 0.5511 0.0169
vt 0.5036 0.2133
vt 0.5784 0.0242
vt 0.5217 0.2181
vt 0.6054 0.0328
vt 0.5395 0.2238
vt 0.6320 0.0427
vt 0.5570 0.2303
vt 0.6580 0.0538
vt 0.5742 0.2377
vt 0.6835 0.0662
vt 0.5911 0.2459
vt 0.7083 0.0797
vt 0.6075 0.2548
vt 0.7325 0.0944
vt 0.6235 0.2645
vt 0.7560 0.1102
vt 0.6390 0.2750
vt 0.7787 0.1272
vt 0.6540 0.2862
vt 0.8005 0.1452
vt 0.6685 0.2981
vt 0.8215 0.1642
vt 0.6824 0.3106
vt 0.0212 0.1452
vt 0.1532 0.2981
vt 0.1394 0.3106
vt 0.0002 0.1642
vt 0.0430 0.1272
vt 0.1677 0.2862
vn 0.4361 0.8956 -0.0882
vn 0.4361 0.8611 -0.2612
vn 0.4361 0.7936 -0.4242
vn 0.4361 0.6956 -0.5709
vn 0.4361 0.5709 -0.6956
vn 0.4361 0.4242 -0.7936
vn 0.4361 0.2612 -0.8611
vn 0.4362 0.0882 -0.8955
vn 0.4362 -0.0882 -0.8955
vn 0.4362 -0.2612 -0.8611
vn 0.4362 -0.4242 -0.7936
vn 0.4362 -0.5709 -0.6956
vn 0.4362 -0.6956 -0.5709
vn 0.4362 -0.7936 -0.4242
vn 0.4362 -0.8611 -0.2612
vn 0.4362 -0.8955 -0.0882
vn 0.4362 -0.8955 0.0882
vn 0.4362 -0.8611 0.2612
vn 0.4362 -0.7936 0.4242
vn 0.4362 -0.6956 0.5709
vn 0.4362 -0.5709 0.6956
vn 0.4362 -0.4242 0.7936
vn 0.4362 -0.2612 0.8611
vn 0.4362 -0.0882 0.8955
vn 0.4362 0.0882 0.8955
vn 0.4361 0.2612 0.8611
vn 0.4361 0.4242 0.7936
vn 0.4361 0.5709 0.6956
vn 0.4361 0.6956 0.5709
vn 0.4361 0.7936 0.4242
vn 0.4361 0.8611 0.2612
vn 0.4361 0.8956 0.0882
vn -1.0000 -0.0000 0.0000
vn -0.0016 0.9952 0.0980
vn -0.0016 0.9569 0.2903
vn -0.0016 0.8819 0.4714
vn -0.0016 0.7730 0.6344
vn -0.0016 0.6344 0.7730
vn -0.0015 0.4714 0.8819
vn -0.0015 0.2903 0.9569
vn -0.0015 0.0980 0.9952
vn -0.0015 -0.0980 0.9952
vn -0.0015 -0.2903 0.9569
vn -0.0015 -0.4714 0.8819
vn -0.0015 -0.6344 0.7730
vn -0.0015 -0.7730 0.6344
vn -0.0015 -0.8819 0.4714
vn -0.0015 -0.9569 0.2903
vn -0.0015 -0.9952 0.0980
vn -0.0015 -0.9952 -0.0980
vn -0.0015 -0.9569 -0.2903
vn -0.0015 -0.8819 -0.4714
vn -0.0015 -0.7730 -0.6344
vn -0.0015 -0.6344 -0.7730
vn -0.0015 -0.4714 -0.8819
vn -0.0015 -0.2903 -0.9569
vn -0.0015 -0.0980 -0.9952
vn -0.0015 0.0980 -0.9952
vn -0.0015 0.2903 -0.9569
vn -0.0015 0.4714 -0.8819
vn -0.0016 0.6344 -0.7730
vn -0.0016 0.7730 -0.6344
vn -0.0016 0.8819 -0.4714
vn -0.0016 0.9569 -0.2903
vn -0.0016 0.9952 -0.0980
vn -0.4341 0.8965 -0.0883
vn -0.4341 0.8621 -0.2615
vn -0.4341 0.7945 -0.4247
vn -0.4341 0.6964 -0.5715
vn -0.4341 0.5715 -0.6964
vn -0.4341 0.4246 -0.7945
vn -0.4341 0.2615 -0.8621
vn -0.4341 0.0883 -0.8965
vn -0.4341 -0.0883 -0.8965
vn -0.4341 -0.2615 -0.8621
vn -0.4341 -0.4247 -0.7945
vn -0.4341 -0.5715 -0.6964
vn -0.4341 -0.6964 -0.5715
vn -0.4341 -0.7945 -0.4247
vn -0.4341 -0.8621 -0.2615
vn -0.4341 -0.8965 -0.0883
vn -0.4341 -0.8965 0.0883
vn -0.4341 -0.8621 0.2615
vn -0.4341 -0.7945 0.4247
vn -0.4341 -0.6964 0.5715
vn -0.4341 -0.5715 0.6964
vn -0.4341 -0.4247 0.7945
vn -0.4341 -0.2615 0.8621
vn -0.4341 -0.0883 0.8965
vn -0.4341 0.0883 0.8965
vn -0.4341 0.2615 0.8621
vn -0.4341 0.4246 0.7945
vn -0.4341 0.5715 0.6964
vn -0.4341 0.6964 0.5715
vn -0.4341 0.7945 0.4247
vn -0.4341 0.8621 0.2615
vn -0.4341 0.8965 0.0883
vn 0.2411 0.9658 0.0951
vn 0.2411 0.9287 0.2817
vn 0.2411 0.8559 0.4575
vn 0.2411 0.7502 0.6157
vn 0.2411 0.6157 0.7502
vn 0.2411 0.4575 0.8559
vn 0.2411 0.2817 0.9287
vn 0.2411 0.0951 0.9658
vn 0.2411 -0.0951 0.9658
vn 0.2411 -0.2817 0.9287
vn 0.2411 -0.4575 0.8559
vn 0.2411 -0.6157 0.7502
vn 0.2411 -0.7502 0.6157
vn 0.2411 -0.8559 0.4575
vn 0.2411 -0.9287 0.2817
vn 0.2411 -0.9658 0.0951
vn 0.2411 -0.9658 -0.0951
vn 0.2411 -0.9287 -0.2817
vn 0.2411 -0.8559 -0.4575
vn 0.2411 -0.7502 -0.6157
vn 0.2411 -0.6157 -0.7502
vn 0.2411 -0.4575 -0.8559
vn 0.2411 -0.2817 -0.9287
vn 0.2411 -0.0951 -0.9658
vn 0.2411 0.0951 -0.9658
vn 0.2411 0.2817 -0.9287
vn 0.2411 0.4575 -0.8559
vn 0.2411 0.6157 -0.7502
vn 0.2411 0.7502 -0.6157
vn 0.2411 0.8559 -0.4575
vn 0.2411 0.9287 -0.2817
vn 0.2411 0.9658 -0.0951
s off
f 98/1/1 2/2/1 99/3/1
f 99/3/2 2/2/2 100/4/2
f 100/4/3 2/2/3 101/5/3
f 101/6/4 2/2/4 102/7/4
f 102/7/5 2/2/5 103/8/5
f 103/8/6 2/2/6 104/9/6
f 104/9/7 2/2/7 105/10/7
f 105/10/8 2/2/8 106/11/8
f 106/11/9 2/2/9 107/12/9
f 107/12/10 2/2/10 108/13/10
f 108/13/11 2/2/11 109/14/11
f 109/14/12 2/2/12 110/15/12
f 110/15/13 2/2/13 111/16/13
f 111/16/14 2/2/14 112/17/14
f 112/17/15 2/2/15 113/18/15
f 113/18/16 2/2/16 114/19/16
f 114/19/17 2/2/17 115/20/17
f 115/20/18 2/2/18 116/21/18
f 116/21/19 2/2/19 117/22/19
f 117/22/20 2/2/20 118/23/20
f 118/23/21 2/2/21 119/24/21
f 119/24/22 2/2/22 120/25/22
f 120/25/23 2/2/23 121/26/23
f 121/26/24 2/2/24 122/27/24
f 122/27/25 2/2/25 123/28/25
f 123/28/26 2/2/26 124/29/26
f 124/29/27 2/2/27 125/30/27
f 125/30/28 2/2/28 126/31/28
f 126/31/29 2/2/29 127/32/29
f 127/32/30 2/2/30 128/33/30
f 128/33/31 2/2/31 129/34/31
f 129/34/32 2/2/32 98/1/32
f 1/35/33 3/36/33 4/37/33 5/38/33 6/39/33 7/40/33 8/41/33 9/42/33 10/43/33 11/44/33 12/45/33 13/46/33 14/47/33 15/48/33 16/49/33 17/50/33 18/51/33 19/52/33 20/53/33 21/54/33 22/55/33 23/56/33 24/57/33 25/58/33 26/59/33 27/60/33 28/61/33 29/62/33 30/63/33 31/64/33 32/65/33 33/66/33
f 96/67/34 65/68/34 34/69/34 97/70/34
f 95/71/35 64/72/35 65/68/35 96/67/35
f 94/73/36 63/74/36 64/72/36 95/71/36
f 93/75/37 62/76/37 63/74/37 94/73/37
f 92/77/38 61/78/38 62/76/38 93/75/38
f 91/79/39 60/80/39 61/78/39 92/77/39
f 90/81/40 59/82/40 60/80/40 91/79/40
f 89/83/41 58/84/41 59/82/41 90/81/41
f 88/85/42 57/86/42 58/84/42 89/83/42
f 87/87/43 56/88/43 57/86/43 88/85/43
f 86/89/44 55/90/44 56/88/44 87/87/44
f 85/91/45 54/92/45 55/90/45 86/89/45
f 84/93/46 53/94/46 54/92/46 85/91/46
f 83/95/47 52/96/47 53/94/47 84/93/47
f 82/97/48 51/98/48 52/96/48 83/95/48
f 81/99/49 50/100/49 51/98/49 82/97/49
f 80/101/50 49/102/50 50/100/50 81/99/50
f 79/103/51 48/104/51 49/102/51 80/101/51
f 78/105/52 47/106/52 48/104/52 79/103/52
f 77/107/53 46/108/53 47/106/53 78/105/53
f 76/109/54 45/110/54 46/108/54 77/107/54
f 75/111/55 44/112/55 45/110/55 76/109/55
f 74/113/56 43/114/56 44/112/56 75/111/56
f 73/115/57 42/116/57 43/114/57 74/113/57
f 72/117/58 41/118/58 42/116/58 73/115/58
f 71/119/59 40/120/59 41/118/59 72/117/59
f 70/121/60 39/122/60 40/120/60 71/119/60
f 69/123/61 38/124/61 39/122/61 70/121/61
f 68/125/62 37/126/62 38/124/62 69/123/62
f 67/127/63 36/128/63 37/129/63 68/130/63
f 66/131/64 35/132/64 36/128/64 67/127/64
f 97/70/65 34/69/65 35/132/65 66/131/65
f 1/133/66 97/134/66 66/135/66 3/136/66
f 3/136/67 66/135/67 67/137/67 4/138/67
f 4/138/68 67/137/68 68/139/68 5/140/68
f 5/141/69 68/142/69 69/143/69 6/144/69
f 6/144/70 69/143/70 70/145/70 7/146/70
f 7/146/71 70/145/71 71/147/71 8/148/71
f 8/148/72 71/147/72 72/149/72 9/150/72
f 9/150/73 72/149/73 73/151/73 10/152/73
f 10/152/74 73/151/74 74/153/74 11/154/74
f 11/154/75 74/153/75 75/155/75 12/156/75
f 12/156/76 75/155/76 76/157/76 13/158/76
f 13/158/77 76/157/77 77/159/77 14/160/77
f 14/160/78 77/159/78 78/161/78 15/162/78
f 15/162/79 78/161/79 79/163/79 16/164/79
f 16/164/80 79/163/80 80/165/80 17/166/80
f 17/166/81 80/165/81 81/167/81 18/168/81
f 18/168/82 81/167/82 82/169/82 19/170/82
f 19/170/83 82/169/83 83/171/83 20/172/83
f 20/172/84 83/171/84 84/173/84 21/174/84
f 21/174/85 84/173/85 85/175/85 22/176/85
f 22/176/86 85/175/86 86/177/86 23/178/86
f 23/178/87 86/177/87 87/179/87 24/180/87
f 24/180/88 87/179/88 88/181/88 25/182/88
f 25/182/89 88/181/89 89/183/89 26/184/89
f 26/184/90 89/183/90 90/185/90 27/186/90
f 27/186/91 90/185/91 91/187/91 28/188/91
f 28/188/92 91/187/92 92/189/92 29/190/92
f 29/190/93 92/189/93 93/191/93 30/192/93
f 30/192/94 93/191/94 94/193/94 31/194/94
f 31/194/95 94/193/95 95/195/95 32/196/95
f 32/196/96 95/195/96 96/197/96 33/198/96
f 33/198/97 96/197/97 97/134/97 1/133/97
f 65/199/98 129/200/98 98/201/98 34/202/98
f 64/203/99 128/204/99 129/200/99 65/199/99
f 63/205/100 127/206/100 128/204/100 64/203/100
f 62/207/101 126/208/101 127/206/101 63/205/101
f 61/209/102 125/210/102 126/208/102 62/207/102
f 60/211/103 124/212/103 125/210/103 61/209/103
f 59/213/104 123/214/104 124/212/104 60/211/104
f 58/215/105 122/216/105 123/214/105 59/213/105
f 57/217/106 121/218/106 122/216/106 58/215/106
f 56/219/107 120/220/107 121/218/107 57/217/107
f 55/221/108 119/222/108 120/220/108 56/219/108
f 54/223/109 118/224/109 119/222/109 55/221/109
f 53/225/110 117/226/110 118/224/110 54/223/110
f 52/227/111 116/228/111 117/226/111 53/225/111
f 51/229/112 115/230/112 116/228/112 52/227/112
f 50/231/113 114/232/113 115/230/113 51/229/113
f 49/233/114 113/234/114 114/232/114 50/231/114
f 48/235/115 112/236/115 113/234/115 49/233/115
f 47/237/116 111/238/116 112/236/116 48/235/116
f 46/239/117 110/240/117 111/238/117 47/237/117
f 45/241/118 109/242/118 110/240/118 46/239/118
f 44/243/119 108/244/119 109/242/119 45/241/119
f 43/245/120 107/246/120 108/244/120 44/243/120
f 42/247/121 106/248/121 107/246/121 43/245/121
f 41/249/122 105/250/122 106/248/122 42/247/122
f 40/251/123 104/252/123 105/250/123 41/249/123
f 39/253/124 103/254/124 104/252/124 40/251/124
f 38/255/125 102/256/125 103/254/125 39/253/125
f 37/257/126 101/258/126 102/256/126 38/255/126
f 36/259/127 100/260/127 101/261/127 37/262/127
f 35/263/128 99/264/128 100/260/128 36/259/128
f 34/202/129 98/201/129 99/264/129 35/263/129
