# Blender v2.78 (sub 0) OBJ File: 'Target.blend'
# www.blender.org
mtllib Target.mtl
o Cube
v 1.000000 0.000000 -1.000000
v 1.000000 0.000000 1.000000
v -1.000000 0.000000 1.000000
v -1.000000 0.000000 -1.000000
v 1.000000 2.000000 -0.999999
v 0.999999 2.000000 1.000001
v -1.000000 2.000000 1.000000
v -1.000000 2.000000 -1.000000
vt 0.3334 0.6666
vt 0.0001 0.6666
vt 0.0001 0.3334
vt 0.3334 0.3334
vt 0.6669 0.6666
vt 0.3336 0.6666
vt 0.3336 0.3334
vt 0.6669 0.3334
vt 0.3334 0.9999
vt 0.0001 0.9999
vt 0.6669 0.0001
vt 0.3336 0.0001
vt 0.0001 0.0001
vt 0.3334 0.0001
vt 0.6669 0.9999
vt 0.3336 0.9999
vn 0.0000 -1.0000 0.0000
vn 0.0000 1.0000 0.0000
vn 1.0000 0.0000 0.0000
vn -0.0000 -0.0000 1.0000
vn -1.0000 -0.0000 -0.0000
vn 0.0000 0.0000 -1.0000
usemtl Material
s off
f 1/1/1 2/2/1 3/3/1 4/4/1
f 5/5/2 8/6/2 7/7/2 6/8/2
f 1/1/3 5/9/3 6/10/3 2/2/3
f 2/11/4 6/8/4 7/7/4 3/12/4
f 3/3/5 7/13/5 8/14/5 4/4/5
f 5/5/6 1/15/6 4/16/6 8/6/6
